<svg width="544" height="293" viewBox="0 0 544 293" fill="none" xmlns="http://www.w3.org/2000/svg">
<path d="M258.184 172V170.236C258.867 170.182 259.51 170.1 260.111 169.99C260.713 169.881 261.178 169.703 261.506 169.457C261.861 169.211 262.039 168.869 262.039 168.432C262.039 167.967 261.766 167.365 261.219 166.627L253.098 155.594L245.346 166.627C244.826 167.365 244.621 167.967 244.73 168.432C244.84 168.869 245.127 169.211 245.592 169.457C246.057 169.703 246.631 169.881 247.314 169.99C248.025 170.1 248.709 170.182 249.365 170.236V172H233.82V170.236C234.914 170.072 235.844 169.867 236.609 169.621C237.375 169.348 238.018 169.047 238.537 168.719C239.084 168.363 239.535 167.994 239.891 167.611C240.273 167.201 240.615 166.791 240.916 166.381L250.883 152.518L241.244 139.311C240.889 138.818 240.533 138.367 240.178 137.957C239.822 137.52 239.385 137.15 238.865 136.85C238.373 136.521 237.758 136.262 237.02 136.07C236.281 135.852 235.365 135.701 234.271 135.619V133.855H251.498V135.619C250.65 135.701 249.912 135.824 249.283 135.988C248.682 136.125 248.217 136.33 247.889 136.604C247.588 136.85 247.451 137.191 247.479 137.629C247.533 138.039 247.807 138.572 248.299 139.229L254.902 148.334L261.219 139.229C261.711 138.572 261.984 138.025 262.039 137.588C262.094 137.15 261.971 136.809 261.67 136.562C261.396 136.289 260.959 136.084 260.357 135.947C259.756 135.811 259.031 135.701 258.184 135.619V133.855H273.811V135.619C271.596 135.783 269.873 136.193 268.643 136.85C267.439 137.479 266.482 138.299 265.771 139.311L257.158 151.41L268.109 166.381C268.438 166.791 268.793 167.201 269.176 167.611C269.559 167.994 269.996 168.363 270.488 168.719C271.008 169.074 271.609 169.389 272.293 169.662C272.977 169.936 273.77 170.127 274.672 170.236V172H258.184ZM310.93 154.527C310.93 152.148 310.643 149.934 310.068 147.883C309.521 145.832 308.783 144.055 307.854 142.551C306.924 141.047 305.844 139.871 304.613 139.023C303.383 138.176 302.111 137.752 300.799 137.752C300.307 137.752 299.664 137.902 298.871 138.203C298.078 138.504 297.176 139.01 296.164 139.721C295.152 140.432 294.072 141.389 292.924 142.592C291.775 143.768 290.6 145.23 289.396 146.98V163.264C290.627 164.193 291.762 164.959 292.801 165.561C293.867 166.162 294.852 166.641 295.754 166.996C296.684 167.324 297.559 167.557 298.379 167.693C299.199 167.83 299.979 167.898 300.717 167.898C302.193 167.898 303.547 167.611 304.777 167.037C306.035 166.463 307.115 165.615 308.018 164.494C308.92 163.373 309.631 161.979 310.15 160.311C310.67 158.643 310.93 156.715 310.93 154.527ZM316.467 151.82C316.467 153.406 316.262 155.033 315.852 156.701C315.441 158.369 314.881 159.996 314.17 161.582C313.459 163.168 312.611 164.672 311.627 166.094C310.643 167.516 309.562 168.76 308.387 169.826C307.238 170.865 306.021 171.686 304.736 172.287C303.451 172.916 302.139 173.23 300.799 173.23C299.186 173.23 297.367 172.779 295.344 171.877C293.32 170.975 291.338 169.676 289.396 167.98V187.381C289.396 187.818 289.902 188.256 290.914 188.693C291.953 189.131 293.758 189.541 296.328 189.924V191.688H277.502V189.924C279.307 189.486 280.715 189.062 281.727 188.652C282.738 188.27 283.244 187.846 283.244 187.381V142.838C283.244 141.826 283.189 140.992 283.08 140.336C282.971 139.68 282.711 139.16 282.301 138.777C281.918 138.367 281.344 138.08 280.578 137.916C279.84 137.725 278.814 137.602 277.502 137.547V135.906C278.432 135.715 279.32 135.51 280.168 135.291C281.016 135.045 281.836 134.799 282.629 134.553C283.422 134.279 284.201 133.992 284.967 133.691C285.76 133.363 286.553 133.008 287.346 132.625L288.781 134.061L289.15 142.182C290.518 140.541 291.885 139.119 293.252 137.916C294.646 136.713 295.973 135.729 297.23 134.963C298.488 134.17 299.65 133.582 300.717 133.199C301.811 132.816 302.754 132.625 303.547 132.625C305.406 132.625 307.129 133.062 308.715 133.938C310.301 134.812 311.668 136.084 312.816 137.752C313.965 139.393 314.854 141.402 315.482 143.781C316.139 146.16 316.467 148.84 316.467 151.82ZM322.25 172V170.236C323.426 170.045 324.41 169.854 325.203 169.662C325.996 169.443 326.625 169.238 327.09 169.047C327.555 168.828 327.883 168.609 328.074 168.391C328.293 168.172 328.402 167.953 328.402 167.734V118.844C328.402 117.613 328.32 116.656 328.156 115.973C327.992 115.289 327.691 114.783 327.254 114.455C326.816 114.1 326.229 113.867 325.49 113.758C324.752 113.621 323.809 113.484 322.66 113.348V111.707C324.629 111.324 326.434 110.9 328.074 110.436C329.715 109.971 331.383 109.301 333.078 108.426L334.555 109.82V167.734C334.555 168.145 335.02 168.568 335.949 169.006C336.879 169.443 338.465 169.854 340.707 170.236V172H322.25ZM375.201 153.338C375.201 151.178 374.846 149.127 374.135 147.186C373.424 145.217 372.508 143.494 371.387 142.018C370.266 140.514 368.994 139.324 367.572 138.449C366.15 137.574 364.742 137.137 363.348 137.137C361.27 137.137 359.52 137.533 358.098 138.326C356.676 139.119 355.527 140.213 354.652 141.607C353.805 142.975 353.189 144.602 352.807 146.488C352.424 148.375 352.232 150.412 352.232 152.6C352.232 154.76 352.615 156.824 353.381 158.793C354.146 160.734 355.104 162.443 356.252 163.92C357.428 165.396 358.713 166.572 360.107 167.447C361.502 168.295 362.828 168.719 364.086 168.719C366.027 168.719 367.695 168.363 369.09 167.652C370.484 166.914 371.633 165.875 372.535 164.535C373.438 163.195 374.107 161.582 374.545 159.695C374.982 157.809 375.201 155.689 375.201 153.338ZM381.559 152.107C381.559 153.939 381.326 155.73 380.861 157.48C380.396 159.23 379.754 160.885 378.934 162.443C378.113 164.002 377.129 165.451 375.98 166.791C374.832 168.104 373.561 169.238 372.166 170.195C370.799 171.152 369.336 171.891 367.777 172.41C366.219 172.957 364.605 173.23 362.938 173.23C360.34 173.23 357.988 172.738 355.883 171.754C353.805 170.77 352.014 169.416 350.51 167.693C349.033 165.971 347.885 163.92 347.064 161.541C346.271 159.162 345.875 156.578 345.875 153.789C345.875 151.984 346.094 150.207 346.531 148.457C346.996 146.707 347.625 145.053 348.418 143.494C349.238 141.908 350.209 140.459 351.33 139.146C352.479 137.807 353.736 136.658 355.104 135.701C356.498 134.744 357.988 133.992 359.574 133.445C361.188 132.898 362.842 132.625 364.537 132.625C367.107 132.625 369.432 133.117 371.51 134.102C373.615 135.086 375.406 136.453 376.883 138.203C378.387 139.926 379.535 141.977 380.328 144.355C381.148 146.734 381.559 149.318 381.559 152.107ZM416.422 134.143C416.668 134.307 416.777 134.785 416.75 135.578C416.75 136.371 416.641 137.287 416.422 138.326C416.23 139.365 415.971 140.432 415.643 141.525C415.314 142.619 414.986 143.535 414.658 144.273H412.895C412.73 143.18 412.498 142.25 412.197 141.484C411.896 140.719 411.541 140.117 411.131 139.68C410.748 139.215 410.311 138.887 409.818 138.695C409.354 138.477 408.861 138.367 408.342 138.367C407.74 138.367 407.029 138.627 406.209 139.146C405.416 139.639 404.596 140.432 403.748 141.525C402.9 142.592 402.053 143.973 401.205 145.668C400.385 147.336 399.646 149.332 398.99 151.656V167.734C398.99 168.145 399.496 168.568 400.508 169.006C401.547 169.443 403.352 169.854 405.922 170.236V172H387.096V170.236C388.9 169.826 390.309 169.43 391.32 169.047C392.332 168.637 392.838 168.199 392.838 167.734V143.863C392.838 142.961 392.811 142.209 392.756 141.607C392.701 140.979 392.633 140.473 392.551 140.09C392.469 139.707 392.359 139.406 392.223 139.188C392.113 138.969 392.004 138.791 391.895 138.654C391.703 138.463 391.484 138.312 391.238 138.203C391.02 138.066 390.719 137.957 390.336 137.875C389.98 137.793 389.543 137.738 389.023 137.711C388.504 137.656 387.861 137.602 387.096 137.547V135.906C388.873 135.441 390.609 134.977 392.305 134.512C394.027 134.02 395.572 133.391 396.939 132.625L398.375 134.061L398.908 143.371C399.646 141.867 400.439 140.459 401.287 139.146C402.162 137.834 403.092 136.699 404.076 135.742C405.061 134.758 406.086 133.992 407.152 133.445C408.246 132.898 409.381 132.625 410.557 132.625C411.432 132.625 412.375 132.734 413.387 132.953C414.398 133.172 415.41 133.568 416.422 134.143Z" fill="#00674A"/>
<path d="M218.781 141.482C217.659 140.239 205.572 130.415 203.412 129.78C202.472 129.507 201.527 129.336 200.55 129.265C196.033 128.934 191.049 130.35 187.909 133.734C187.636 134.029 187.479 134.198 187.479 134.198C187.479 134.198 187.596 133.999 187.801 133.65C188.769 132.017 190.18 130.599 191.691 129.464C192.388 128.94 193.125 128.472 193.895 128.065C194.106 127.954 196.07 126.893 196.202 127.032C196.202 127.032 195.13 125.901 195.13 125.901C193.407 124.177 191.542 122.692 189.002 122.692C185.854 122.692 183.164 124.643 182.07 127.401C181.141 126.711 179.664 126.265 178 126.265C176.336 126.265 174.859 126.711 173.93 127.401C172.836 124.643 170.146 122.692 166.998 122.692C164.458 122.692 162.593 124.177 160.869 125.901C160.869 125.901 159.798 127.031 159.797 127.032C159.929 126.893 161.893 127.954 162.104 128.065C162.874 128.472 163.612 128.94 164.308 129.464C165.82 130.599 167.23 132.017 168.199 133.65C168.404 133.999 168.52 134.198 168.52 134.198C168.52 134.198 168.364 134.029 168.09 133.734C164.95 130.35 159.967 128.934 155.45 129.264C154.473 129.336 153.528 129.507 152.588 129.78C150.427 130.415 138.341 140.239 137.219 141.482C133.975 145.073 132 149.832 132 155.052C132 166.239 141.069 175.308 152.256 175.308C162.49 175.308 170.949 167.719 172.317 157.861C173.912 159.023 175.876 159.709 178 159.709C180.124 159.709 182.088 159.023 183.683 157.861C185.051 167.719 193.51 175.308 203.744 175.308C214.931 175.308 224 166.239 224 155.052C224 149.832 222.024 145.073 218.781 141.482ZM151.807 167.775C145.06 167.775 139.591 162.306 139.591 155.559C139.591 148.813 145.06 143.344 151.807 143.344C158.553 143.344 164.022 148.813 164.022 155.559C164.022 162.306 158.553 167.775 151.807 167.775ZM178 154.412C176.22 154.412 174.778 152.969 174.778 151.19C174.778 149.41 176.22 147.968 178 147.968C179.779 147.968 181.222 149.41 181.222 151.19C181.222 152.969 179.779 154.412 178 154.412ZM204.193 167.775C197.446 167.775 191.977 162.306 191.977 155.559C191.977 148.813 197.446 143.344 204.193 143.344C210.939 143.344 216.408 148.813 216.408 155.559C216.408 162.306 210.939 167.775 204.193 167.775Z" fill="#00674A"/>
</svg>
