<svg width="544" height="293" viewBox="0 0 544 293" fill="none" xmlns="http://www.w3.org/2000/svg">
<path d="M241.416 187.349V184.065C242.689 183.965 243.888 183.812 245.008 183.607C246.13 183.404 246.997 183.073 247.608 182.615C248.27 182.157 248.602 181.52 248.602 180.707C248.602 179.841 248.093 178.72 247.073 177.347L231.935 156.808L217.485 177.347C216.516 178.72 216.134 179.841 216.337 180.707C216.542 181.52 217.077 182.157 217.944 182.615C218.81 183.073 219.88 183.404 221.154 183.607C222.479 183.812 223.754 183.965 224.977 184.065V187.349H196V184.065C198.039 183.76 199.773 183.378 201.199 182.92C202.627 182.412 203.825 181.852 204.793 181.241C205.812 180.578 206.653 179.891 207.317 179.178C208.029 178.415 208.666 177.652 209.227 176.889L227.806 151.081L209.839 126.495C209.177 125.578 208.513 124.738 207.852 123.975C207.188 123.161 206.373 122.472 205.404 121.914C204.487 121.301 203.341 120.819 201.965 120.462C200.587 120.056 198.88 119.775 196.841 119.622V116.338H228.953V119.622C227.372 119.775 225.996 120.004 224.824 120.309C223.704 120.564 222.837 120.946 222.225 121.456C221.664 121.914 221.409 122.549 221.461 123.364C221.562 124.127 222.073 125.12 222.99 126.343L235.298 143.292L247.073 126.343C247.99 125.12 248.499 124.101 248.602 123.288C248.704 122.472 248.475 121.838 247.914 121.378C247.403 120.87 246.589 120.488 245.467 120.233C244.346 119.98 242.995 119.775 241.416 119.622V116.338H270.546V119.622C266.417 119.928 263.205 120.691 260.912 121.914C258.668 123.085 256.884 124.611 255.559 126.495L239.503 149.019L259.917 176.889C260.53 177.652 261.192 178.415 261.906 179.178C262.62 179.891 263.434 180.578 264.351 181.241C265.321 181.902 266.441 182.488 267.716 182.997C268.991 183.507 270.469 183.862 272.151 184.065V187.349H241.416ZM339.738 154.821C339.738 150.393 339.203 146.271 338.131 142.453C337.111 138.635 335.736 135.327 334.004 132.527C332.27 129.727 330.257 127.538 327.962 125.959C325.67 124.382 323.299 123.593 320.853 123.593C319.936 123.593 318.737 123.872 317.259 124.433C315.781 124.993 314.099 125.935 312.213 127.259C310.327 128.582 308.313 130.364 306.173 132.603C304.032 134.792 301.841 137.514 299.597 140.772V171.086C301.892 172.815 304.007 174.241 305.944 175.362C307.931 176.481 309.767 177.373 311.449 178.034C313.182 178.644 314.813 179.078 316.342 179.331C317.87 179.586 319.324 179.713 320.7 179.713C323.451 179.713 325.975 179.178 328.268 178.11C330.613 177.041 332.626 175.463 334.31 173.376C335.991 171.289 337.316 168.694 338.284 165.589C339.253 162.484 339.738 158.894 339.738 154.821ZM350.059 149.782C350.059 152.734 349.677 155.763 348.913 158.868C348.146 161.974 347.103 165.002 345.777 167.955C344.452 170.907 342.871 173.707 341.037 176.354C339.203 179.002 337.188 181.317 334.997 183.302C332.856 185.236 330.587 186.764 328.192 187.883C325.796 189.054 323.351 189.639 320.853 189.639C317.846 189.639 314.455 188.799 310.684 187.12C306.912 185.441 303.217 183.023 299.597 179.865V215.982C299.597 216.796 300.54 217.611 302.427 218.425C304.363 219.24 307.728 220.003 312.519 220.716V224H277.426V220.716C280.791 219.901 283.415 219.111 285.301 218.348C287.186 217.637 288.129 216.848 288.129 215.982V133.061C288.129 131.177 288.027 129.625 287.824 128.403C287.62 127.182 287.136 126.214 286.371 125.501C285.658 124.738 284.588 124.204 283.16 123.898C281.784 123.543 279.872 123.314 277.426 123.211V120.157C279.159 119.801 280.815 119.419 282.395 119.012C283.976 118.554 285.505 118.096 286.983 117.638C288.461 117.128 289.913 116.593 291.341 116.033C292.819 115.423 294.297 114.762 295.776 114.049L298.451 116.722L299.138 131.84C301.688 128.785 304.237 126.138 306.785 123.898C309.383 121.659 311.857 119.827 314.2 118.401C316.545 116.925 318.711 115.83 320.7 115.117C322.739 114.404 324.497 114.049 325.975 114.049C329.441 114.049 332.652 114.862 335.609 116.493C338.565 118.12 341.113 120.488 343.253 123.593C345.395 126.648 347.052 130.388 348.223 134.817C349.448 139.245 350.059 144.234 350.059 149.782ZM360.839 187.349V184.065C363.031 183.71 364.865 183.354 366.343 182.997C367.822 182.589 368.994 182.207 369.861 181.852C370.728 181.444 371.339 181.036 371.695 180.63C372.103 180.223 372.307 179.815 372.307 179.407V88.3941C372.307 86.1025 372.154 84.3209 371.848 83.0494C371.542 81.7761 370.981 80.8341 370.167 80.2235C369.35 79.5627 368.256 79.1289 366.878 78.926C365.503 78.671 363.745 78.4159 361.603 78.1628V75.1079C365.273 74.3949 368.638 73.6056 371.695 72.7418C374.754 71.8762 377.863 70.6289 381.023 69L383.776 71.5951V179.407C383.776 180.172 384.643 180.96 386.375 181.775C388.108 182.589 391.065 183.354 395.244 184.065V187.349H360.839ZM459.543 152.608C459.543 148.587 458.881 144.769 457.556 141.155C456.23 137.49 454.523 134.282 452.433 131.535C450.344 128.735 447.972 126.52 445.322 124.891C442.671 123.262 440.046 122.448 437.448 122.448C433.574 122.448 430.312 123.185 427.662 124.662C425.011 126.138 422.869 128.174 421.238 130.77C419.659 133.316 418.511 136.345 417.799 139.856C417.085 143.369 416.727 147.161 416.727 151.234C416.727 155.255 417.441 159.097 418.869 162.763C420.295 166.376 422.081 169.558 424.221 172.307C426.413 175.055 428.808 177.244 431.407 178.873C434.007 180.452 436.479 181.241 438.824 181.241C442.442 181.241 445.551 180.578 448.151 179.255C450.75 177.881 452.892 175.947 454.573 173.452C456.256 170.958 457.503 167.955 458.32 164.442C459.134 160.931 459.543 156.984 459.543 152.608ZM471.394 150.316C471.394 153.727 470.96 157.061 470.093 160.319C469.226 163.576 468.03 166.657 466.501 169.558C464.971 172.46 463.137 175.157 460.995 177.652C458.855 180.096 456.486 182.207 453.885 183.989C451.337 185.77 448.61 187.146 445.704 188.112C442.8 189.13 439.791 189.639 436.684 189.639C431.841 189.639 427.457 188.723 423.533 186.891C419.659 185.059 416.321 182.539 413.517 179.331C410.764 176.125 408.624 172.307 407.094 167.879C405.615 163.45 404.877 158.639 404.877 153.447C404.877 150.087 405.285 146.779 406.1 143.521C406.967 140.264 408.139 137.185 409.618 134.282C411.146 131.33 412.956 128.632 415.046 126.188C417.187 123.695 419.531 121.557 422.081 119.775C424.679 117.993 427.457 116.594 430.413 115.575C433.422 114.557 436.505 114.049 439.664 114.049C444.455 114.049 448.789 114.965 452.662 116.798C456.586 118.63 459.925 121.175 462.678 124.433C465.482 127.64 467.622 131.458 469.1 135.885C470.628 140.314 471.394 145.124 471.394 150.316ZM536.381 116.875C536.84 117.18 537.043 118.07 536.993 119.546C536.993 121.022 536.789 122.727 536.381 124.662C536.023 126.596 535.54 128.582 534.929 130.617C534.316 132.653 533.704 134.359 533.093 135.733H529.807C529.499 133.698 529.067 131.967 528.505 130.541C527.944 129.116 527.283 127.996 526.518 127.182C525.804 126.317 524.99 125.706 524.071 125.349C523.206 124.943 522.287 124.738 521.32 124.738C520.197 124.738 518.872 125.222 517.343 126.188C515.865 127.106 514.337 128.582 512.756 130.617C511.175 132.603 509.596 135.174 508.016 138.329C506.487 141.435 505.11 145.15 503.887 149.477V179.407C503.887 180.172 504.83 180.96 506.716 181.775C508.653 182.589 512.018 183.354 516.808 184.065V187.349H481.716V184.065C485.078 183.302 487.705 182.565 489.589 181.852C491.476 181.088 492.419 180.273 492.419 179.407V134.969C492.419 133.29 492.369 131.89 492.266 130.77C492.164 129.6 492.037 128.658 491.884 127.945C491.731 127.232 491.526 126.672 491.273 126.266C491.068 125.859 490.864 125.527 490.661 125.272C490.303 124.917 489.895 124.636 489.437 124.433C489.03 124.178 488.469 123.975 487.755 123.822C487.092 123.669 486.277 123.567 485.308 123.517C484.34 123.414 483.142 123.314 481.716 123.211V120.157C485.028 119.291 488.264 118.427 491.426 117.562C494.635 116.646 497.515 115.475 500.064 114.049L502.74 116.722L503.734 134.053C505.11 131.254 506.588 128.632 508.169 126.188C509.8 123.746 511.533 121.633 513.367 119.851C515.203 118.019 517.114 116.594 519.101 115.575C521.141 114.557 523.256 114.049 525.448 114.049C527.079 114.049 528.837 114.252 530.724 114.659C532.608 115.067 534.495 115.804 536.381 116.875Z" fill="black"/>
<path d="M168.299 129.997C166.214 127.682 143.748 109.384 139.733 108.202C137.986 107.693 136.23 107.375 134.414 107.243C126.018 106.626 116.754 109.263 110.918 115.566C110.41 116.116 110.119 116.431 110.119 116.431C110.119 116.431 110.336 116.06 110.717 115.41C112.516 112.368 115.139 109.727 117.947 107.613C119.243 106.637 120.613 105.766 122.044 105.007C122.436 104.801 126.087 102.825 126.332 103.083L124.339 100.977C121.137 97.7659 117.67 95 112.949 95C107.098 95 102.098 98.6338 100.065 103.771C98.3382 102.486 95.5929 101.655 92.5 101.655C89.4071 101.655 86.6618 102.486 84.9351 103.771C82.9017 98.6338 77.9018 95 72.0506 95C67.3295 95 63.8631 97.7659 60.6587 100.977C60.6587 100.977 58.668 103.082 58.6662 103.083C58.9115 102.825 62.562 104.801 62.9542 105.007C64.3854 105.766 65.7571 106.637 67.0507 107.613C69.8611 109.727 72.4819 112.368 74.2829 115.41C74.664 116.06 74.8796 116.431 74.8796 116.431C74.8796 116.431 74.5896 116.116 74.0803 115.566C68.244 109.263 58.9821 106.626 50.5864 107.241C48.7705 107.375 47.014 107.693 45.2668 108.202C41.2502 109.384 18.786 127.682 16.7005 129.997C10.6709 136.686 7 145.55 7 155.272C7 176.109 23.8565 193 44.6497 193C63.6716 193 79.3943 178.865 81.937 160.504C84.9017 162.668 88.5521 163.946 92.5 163.946C96.4479 163.946 100.098 162.668 103.063 160.504C105.606 178.865 121.328 193 140.35 193C161.143 193 178 176.109 178 155.272C178 145.55 174.327 136.686 168.299 129.997ZM43.8152 178.969C31.2746 178.969 21.1094 168.783 21.1094 156.216C21.1094 143.652 31.2746 133.465 43.8152 133.465C56.354 133.465 66.5192 143.652 66.5192 156.216C66.5192 168.783 56.354 178.969 43.8152 178.969ZM92.5 154.08C89.1915 154.08 86.5113 151.392 86.5113 148.079C86.5113 144.764 89.1915 142.078 92.5 142.078C95.8066 142.078 98.4887 144.764 98.4887 148.079C98.4887 151.392 95.8066 154.08 92.5 154.08ZM141.185 178.969C128.644 178.969 118.479 168.783 118.479 156.216C118.479 143.652 128.644 133.465 141.185 133.465C153.724 133.465 163.889 143.652 163.889 156.216C163.889 168.783 153.724 178.969 141.185 178.969Z" fill="black"/>
</svg>
