<svg width="544" height="544" viewBox="0 0 544 544" fill="none" xmlns="http://www.w3.org/2000/svg">
<path d="M497.239 230.564C491.056 223.713 424.446 169.566 412.542 166.066C407.362 164.562 402.154 163.619 396.77 163.228C371.878 161.404 344.411 169.208 327.107 187.859C325.603 189.485 324.738 190.417 324.738 190.417C324.738 190.417 325.382 189.32 326.512 187.396C331.847 178.396 339.622 170.58 347.949 164.325C351.79 161.437 355.852 158.857 360.095 156.614C361.258 156.002 372.081 150.154 372.809 150.92L366.901 144.687C357.406 135.185 347.128 127 333.131 127C315.782 127 300.958 137.753 294.929 152.954C289.81 149.151 281.67 146.693 272.5 146.693C263.33 146.693 255.19 149.151 250.071 152.954C244.042 137.753 229.218 127 211.869 127C197.872 127 187.594 135.185 178.093 144.687C178.093 144.687 172.191 150.915 172.186 150.92C172.913 150.154 183.736 156.002 184.899 156.614C189.143 158.857 193.21 161.437 197.045 164.325C205.378 170.58 213.148 178.396 218.488 187.396C219.618 189.32 220.257 190.417 220.257 190.417C220.257 190.417 219.397 189.485 217.887 187.859C200.583 169.208 173.122 161.404 148.23 163.222C142.846 163.619 137.638 164.562 132.458 166.066C120.549 169.566 53.9444 223.713 47.7612 230.564C29.8839 250.356 19 276.586 19 305.356C19 367.015 68.9781 417 130.628 417C187.026 417 233.643 375.172 241.182 320.839C249.972 327.243 260.795 331.024 272.5 331.024C284.205 331.024 295.028 327.243 303.818 320.839C311.357 375.172 357.974 417 414.372 417C476.022 417 526 367.015 526 305.356C526 276.586 515.111 250.356 497.239 230.564ZM128.154 375.481C90.972 375.481 60.833 345.338 60.833 308.151C60.833 270.969 90.972 240.826 128.154 240.826C165.33 240.826 195.469 270.969 195.469 308.151C195.469 345.338 165.33 375.481 128.154 375.481ZM272.5 301.829C262.691 301.829 254.744 293.876 254.744 284.07C254.744 274.26 262.691 266.312 272.5 266.312C282.304 266.312 290.256 274.26 290.256 284.07C290.256 293.876 282.304 301.829 272.5 301.829ZM416.846 375.481C379.664 375.481 349.525 345.338 349.525 308.151C349.525 270.969 379.664 240.826 416.846 240.826C454.022 240.826 484.161 270.969 484.161 308.151C484.161 345.338 454.022 375.481 416.846 375.481Z" fill="#023430"/>
</svg>
