<svg width="16" height="16" viewBox="0 0 16 16" fill="none" xmlns="http://www.w3.org/2000/svg">
<path d="M0.00311279 8.00001C0.00311279 2.00881 2.00261 0.0117798 8.00113 0.0117798C13.9996 0.0117798 15.9991 2.00881 15.9991 8.00001C15.9991 13.9912 13.9996 15.9882 8.00113 15.9882C2.00261 15.9882 0.00311279 13.9912 0.00311279 8.00001Z" fill="#564ED1"/>
<path fill-rule="evenodd" clip-rule="evenodd" d="M8.09401 3.9003L4.96339 8.68197C4.86409 8.83366 4.97304 9.03485 5.1545 9.03485H6.76698H7.59845H8.0246L7.49292 11.9337C7.44802 12.1785 7.77224 12.308 7.90865 12.0997L11.0392 7.31798C11.1386 7.16629 11.0296 6.9651 10.8481 6.9651H8.91694H8.40419H7.97804L8.50972 4.0662C8.55462 3.82139 8.23038 3.69198 8.09401 3.9003Z" fill="white"/>
</svg>
